<svg width="15" height="19" viewBox="0 0 15 19" fill="none" xmlns="http://www.w3.org/2000/svg">
<path d="M4.83084 1.3656C4.60527 0.711721 4.01057 0.363689 3.44223 0.550009L0.86422 1.39372C0.354477 1.56246 0 2.11791 0 2.75069C0 11.448 5.8767 18.5 13.1244 18.5C13.6517 18.5 14.1146 18.0746 14.2552 17.4629L14.9583 14.3693C15.1136 13.6873 14.8236 12.9737 14.2787 12.703L11.4663 11.2968C10.9888 11.0578 10.4351 11.223 10.1099 11.7046L8.92637 13.4377C6.86396 12.2671 5.19411 10.2633 4.21856 7.78836L5.66284 6.37163C6.06419 5.9779 6.20188 5.31699 6.00267 4.74397L4.83084 1.36911V1.3656Z" fill="white"/>
</svg>
