<svg width="100" height="100" viewBox="0 0 100 100" fill="none" xmlns="http://www.w3.org/2000/svg">
<circle cx="50" cy="50" r="50" fill="white"/>
<path d="M62.0388 33.5645C63.2888 33.5645 64.3688 34.1245 65.0088 35.1245C65.4588 35.8045 65.6988 36.7145 65.6288 37.7845C65.5788 38.5145 65.4088 39.2045 65.0988 39.8045C64.3688 41.2645 62.8588 42.2345 60.4688 42.2145C61.4987 39.5545 62.0388 36.5345 62.0388 33.5645Z" fill="#FCE3D1"/>
<path d="M37.8498 33.5654C37.8498 36.5354 38.3898 39.5554 39.4198 42.2154C37.0298 42.2354 35.5198 41.2654 34.7898 39.8054C34.4798 39.2054 34.3098 38.5154 34.2698 37.7854C34.1998 36.7254 34.4398 35.8254 34.8998 35.1254C35.5498 34.1254 36.6298 33.5554 37.8498 33.5254V33.5654Z" fill="#FCE3D1"/>
<path d="M57.8502 53.565C58.6802 53.805 59.5102 54.065 60.3402 54.345C58.1802 58.315 54.5202 64.545 50.0102 64.545C45.5002 64.545 41.8102 58.315 39.6602 54.355C40.5002 54.075 41.3502 53.815 42.2002 53.565C43.1002 53.335 43.1602 50.255 43.1602 48.065C44.9902 49.805 47.2702 50.865 49.9502 50.865C52.6302 50.865 55.0402 49.735 56.8902 47.915C56.8902 50.105 56.9502 53.335 57.8502 53.565Z" fill="#FCE3D1"/>
<path d="M62.0377 33.5654C62.0377 36.5354 61.4977 39.5554 60.4677 42.2154C59.6077 44.4354 58.4077 46.4154 56.8877 47.9154C55.0377 49.7354 52.6977 50.8653 49.9477 50.8653C47.1977 50.8653 44.9877 49.8053 43.1577 48.0653C41.5577 46.5453 40.3077 44.5054 39.4177 42.2154C38.3877 39.5554 37.8477 36.5354 37.8477 33.5654V33.5254H37.9377C38.3777 31.8354 48.0077 31.2054 53.8777 31.3954C54.8177 30.5854 55.6077 26.5654 55.1477 22.9854C57.1977 25.7754 57.7777 30.5654 57.8177 31.7754C59.3977 32.1454 62.0077 33.0254 62.0377 33.5654Z" fill="#FCE3D1"/>
<mask id="mask0_205_6225" style="mask-type:luminance" maskUnits="userSpaceOnUse" x="39" y="47" width="22" height="18">
<path d="M57.8502 53.565C58.6802 53.805 59.5102 54.065 60.3402 54.345C58.1802 58.315 54.5202 64.545 50.0102 64.545C45.5002 64.545 41.8102 58.315 39.6602 54.355C40.5002 54.075 41.3502 53.815 42.2002 53.565C43.1002 53.335 43.1602 50.255 43.1602 48.065C44.9902 49.805 47.2702 50.865 49.9502 50.865C52.6302 50.865 55.0402 49.735 56.8902 47.915C56.8902 50.105 56.9502 53.335 57.8502 53.565Z" fill="white"/>
</mask>
<g mask="url(#mask0_205_6225)">
<path d="M62.0416 35.5644C62.0416 38.5344 61.5016 41.5544 60.4716 44.2144C59.6116 46.4344 58.4116 48.4144 56.8916 49.9144C55.0416 51.7344 52.7016 52.8644 49.9516 52.8644C47.2016 52.8644 44.9916 51.8044 43.1616 50.0644C41.5616 48.5444 40.3116 46.5044 39.4216 44.2144C38.3916 41.5544 37.8516 38.5344 37.8516 35.5644V35.5244H37.9416C38.3816 33.8344 48.0116 33.2044 53.8816 33.3944C54.8216 32.5844 55.6116 28.5644 55.1516 24.9844C57.2016 27.7744 57.7816 32.5644 57.8216 33.7744C59.4016 34.1444 62.0116 35.0244 62.0416 35.5644Z" fill="#ECD5C4"/>
</g>
<path d="M39.6568 54.3547C36.1768 55.5047 32.7768 56.9347 30.1068 58.5647C29.1268 49.9047 36.4268 52.7447 33.9768 46.4947C32.7468 43.3647 33.1068 41.1847 34.7868 39.8047C35.5168 41.2647 37.0268 42.2347 39.4168 42.2147C40.3068 44.5047 41.5568 46.5447 43.1568 48.0647C43.1568 50.2547 43.0968 53.3347 42.1968 53.5647C41.3468 53.8147 40.4968 54.0747 39.6568 54.3547Z" fill="#647177"/>
<path d="M69.7567 58.4747C67.1067 56.8847 63.7667 55.4747 60.3367 54.3447C59.5067 54.0647 58.6767 53.8047 57.8467 53.5647C56.9467 53.3347 56.8867 50.1047 56.8867 47.9147C58.4067 46.4147 59.6067 44.4347 60.4667 42.2147C62.8567 42.2347 64.3667 41.2647 65.0967 39.8047C66.7667 41.1847 67.1367 43.3647 65.9067 46.4947C63.4467 52.7447 70.7267 49.8047 69.7567 58.4747Z" fill="#647177"/>
<path d="M65.0057 35.1254C64.3657 34.1254 63.2857 33.5654 62.0357 33.5654C62.0057 33.0254 59.3957 32.1454 57.8157 31.7754C57.7757 30.5654 57.1957 25.7754 55.1457 22.9854C55.6057 26.5654 54.8157 30.5854 53.8757 31.3954C48.0057 31.2054 38.3757 31.8354 37.9357 33.5254H37.8456C36.6256 33.5554 35.5457 34.1254 34.8957 35.1254C34.1357 26.9654 38.8157 16.2354 49.9457 16.2354C61.0757 16.2354 65.7757 26.9654 65.0157 35.1254H65.0057Z" fill="#647177"/>
<path d="M34.8964 35.3751C34.8964 35.3751 34.8564 35.3751 34.8364 35.3751C34.7364 35.3451 34.6564 35.2651 34.6464 35.1551C34.1464 29.8251 35.9064 24.2451 39.2264 20.5951C41.9764 17.5851 45.6764 15.9951 49.9464 15.9951C54.2164 15.9951 57.9264 17.5951 60.6764 20.6051C64.0064 24.2551 65.7564 29.8351 65.2664 35.1551C65.2464 35.3651 64.9164 35.4451 64.7964 35.2651C64.2064 34.3451 63.2064 33.8151 62.0364 33.8151C61.9064 33.8151 61.7964 33.7151 61.7864 33.5751C61.6664 33.2751 59.7864 32.4951 57.7564 32.0151C57.6464 31.9851 57.5664 31.8951 57.5664 31.7751C57.5364 30.7651 57.0764 26.7751 55.4964 23.9751C55.7164 27.3851 54.9564 30.7851 54.0464 31.5751C53.9964 31.6151 53.9364 31.6351 53.8764 31.6351C45.5264 31.3651 38.4764 32.4751 38.1864 33.5751C38.1564 33.6851 38.0564 33.7651 37.9464 33.7651H37.8564C36.7164 33.7951 35.7164 34.3351 35.1164 35.2551C35.0664 35.3251 34.9864 35.3651 34.9064 35.3651L34.8964 35.3751ZM62.1964 33.3151C63.2364 33.3551 64.1564 33.7651 64.8164 34.4651C65.1064 29.4751 63.4064 24.3351 60.3064 20.9251C57.6564 18.0151 54.0664 16.4751 49.9464 16.4751C45.8264 16.4751 42.2464 18.0151 39.5964 20.9151C36.4964 24.3151 34.7964 29.4551 35.0964 34.4551C35.7764 33.7351 36.7164 33.3051 37.7664 33.2651C38.9064 31.3051 49.6864 31.0151 53.7764 31.1351C54.5464 30.3051 55.3564 26.5951 54.8964 23.0151C54.8864 22.9051 54.9464 22.7951 55.0564 22.7551C55.1664 22.7151 55.2864 22.7551 55.3464 22.8351C57.3564 25.5651 57.9664 30.1451 58.0564 31.5751C58.8164 31.7651 61.6564 32.5251 62.1964 33.3151Z" fill="#647177"/>
<path d="M69.7583 58.4757C71.8583 59.7557 73.5283 61.1557 74.4483 62.6357C77.6083 67.7457 78.2583 84.0057 78.2583 84.0057H21.7383C21.7383 84.0057 22.3783 67.7457 25.5483 62.6357C26.4483 61.1857 28.0583 59.8157 30.1083 58.5657C32.7783 56.9357 36.1783 55.5057 39.6583 54.3557C41.8083 58.3157 45.4783 64.5457 50.0083 64.5457C54.5383 64.5457 58.1783 58.3157 60.3383 54.3457C63.7683 55.4757 67.1083 56.8857 69.7583 58.4757Z" fill="#BCDAD8"/>
</svg>
