<svg width="15" height="18" viewBox="0 0 15 18" fill="none" xmlns="http://www.w3.org/2000/svg">
<path d="M4.83084 0.865598C4.60527 0.211721 4.01057 -0.136311 3.44223 0.0500092L0.86422 0.893722C0.354477 1.06246 0 1.61791 0 2.25069C0 10.948 5.8767 18 13.1244 18C13.6517 18 14.1146 17.5746 14.2552 16.9629L14.9583 13.8693C15.1136 13.1873 14.8236 12.4737 14.2787 12.203L11.4663 10.7968C10.9888 10.5578 10.4351 10.723 10.1099 11.2046L8.92637 12.9377C6.86396 11.7671 5.19411 9.76325 4.21856 7.28836L5.66284 5.87163C6.06419 5.4779 6.20188 4.81699 6.00267 4.24397L4.83084 0.869114V0.865598Z" fill="#248CC0"/>
</svg>
