<svg width="100" height="100" viewBox="0 0 100 100" fill="none" xmlns="http://www.w3.org/2000/svg">
<circle cx="50" cy="50" r="50" fill="white"/>
<path d="M37.8998 34.1383C37.8998 37.1083 38.4398 40.1283 39.4798 42.7983C35.9298 42.7983 34.0298 40.4583 34.1098 37.9783C34.1598 36.4683 34.7498 35.3383 35.6398 34.7083C36.2698 34.2583 37.0498 34.0583 37.9098 34.1383H37.8998Z" fill="#FFEDE0"/>
<path d="M62.0993 34.1386C63.1193 34.0386 64.0393 34.3486 64.7093 34.9886C65.4093 35.6486 65.8593 36.6686 65.8993 37.9786C65.9793 40.4586 64.0793 42.7986 60.5393 42.7986H60.5293C61.5593 40.1286 62.0993 37.1086 62.0993 34.1386Z" fill="#FFEDE0"/>
<path d="M58.7511 53.8484C59.3811 54.0384 60.0211 54.2284 60.6411 54.4184V54.4384C60.6411 54.4384 59.0611 61.2584 50.0011 61.2584C40.9411 61.2584 39.3711 54.4384 39.3711 54.4384C40.0111 54.2384 40.6511 54.0384 41.3011 53.8484C42.2011 53.6184 42.2611 49.8384 42.2611 47.6484H42.2711C44.2411 49.9584 46.8411 51.4384 50.0011 51.4384C53.1611 51.4384 55.8111 49.9284 57.7911 47.5684C57.7911 49.7584 57.8511 53.6184 58.7511 53.8484Z" fill="#FFEDE0"/>
<path d="M62.1004 34.1388C62.1004 37.1088 61.5604 40.1288 60.5304 42.7888C59.8404 44.5788 58.9204 46.2188 57.7904 47.5688C55.8104 49.9288 53.1904 51.4388 50.0004 51.4388C46.8104 51.4388 44.2404 49.9588 42.2704 47.6388C41.1204 46.2688 40.1804 44.6188 39.4804 42.7988C38.4404 40.1288 37.9004 37.1088 37.9004 34.1388C38.0004 30.0388 53.4204 34.7688 54.1604 23.5488C55.6504 31.5988 60.8404 34.0388 62.1004 34.1388Z" fill="#FFEDE0"/>
<mask id="mask0_205_6163" style="mask-type:luminance" maskUnits="userSpaceOnUse" x="39" y="47" width="22" height="15">
<path d="M58.7511 53.8484C59.3811 54.0384 60.0211 54.2284 60.6411 54.4184V54.4384C60.6411 54.4384 59.0611 61.2584 50.0011 61.2584C40.9411 61.2584 39.3711 54.4384 39.3711 54.4384C40.0111 54.2384 40.6511 54.0384 41.3011 53.8484C42.2011 53.6184 42.2611 49.8384 42.2611 47.6484H42.2711C44.2411 49.9584 46.8411 51.4384 50.0011 51.4384C53.1611 51.4384 55.8111 49.9284 57.7911 47.5684C57.7911 49.7584 57.8511 53.6184 58.7511 53.8484Z" fill="white"/>
</mask>
<g mask="url(#mask0_205_6163)">
<path d="M62.1004 36.1388C62.1004 39.1088 61.5604 42.1288 60.5304 44.7888C59.8404 46.5788 58.9204 48.2188 57.7904 49.5688C55.8104 51.9288 53.1904 53.4388 50.0004 53.4388C46.8104 53.4388 44.2404 51.9588 42.2704 49.6388C41.1204 48.2688 40.1804 46.6188 39.4804 44.7988C38.4404 42.1288 37.9004 39.1088 37.9004 36.1388C38.0004 32.0388 53.4204 36.7688 54.1604 25.5488C55.6504 33.5988 60.8404 36.0388 62.1004 36.1388Z" fill="#F7E2D3"/>
</g>
<path d="M64.7095 34.9882C64.0395 34.3482 63.1195 34.0382 62.0995 34.1382C60.8395 34.0382 55.6495 31.5982 54.1595 23.5482C53.4195 34.7682 37.9995 30.0382 37.8995 34.1382C37.0395 34.0582 36.2595 34.2582 35.6295 34.7082C32.4195 20.5082 48.0295 12.4782 53.9995 18.7882C58.2695 16.8782 67.3995 24.6982 64.7395 34.9582L64.7095 34.9882Z" fill="#666F74"/>
<path d="M64.6897 35.2285C64.6297 35.2285 64.5798 35.2085 64.5397 35.1685C63.9197 34.5685 63.0597 34.2885 62.1297 34.3885C61.1197 34.3085 56.1197 32.3485 54.2297 24.9985C53.0497 30.8685 47.2797 31.6285 42.9797 32.1885C40.2997 32.5385 38.1797 32.8185 38.1497 34.1485C38.1497 34.2185 38.1197 34.2785 38.0697 34.3285C38.0197 34.3785 37.9397 34.3985 37.8797 34.3885C37.0897 34.3185 36.3597 34.4985 35.7797 34.9085C35.7097 34.9585 35.6197 34.9685 35.5497 34.9385C35.4697 34.9085 35.4097 34.8385 35.3997 34.7585C33.4797 26.2485 38.1797 20.3485 42.7897 17.8885C46.9797 15.6485 51.4897 15.8985 54.0697 18.4885C55.8197 17.8185 58.2597 18.5585 60.4997 20.4485C63.6297 23.0885 66.6798 28.4985 64.9897 35.0085C64.9797 35.0485 64.9597 35.0885 64.9297 35.1185C64.8697 35.1785 64.7897 35.2085 64.6997 35.2085L64.6897 35.2285ZM62.4997 33.8685C63.2597 33.8685 63.9897 34.1085 64.5798 34.5485C66.0198 28.4085 63.1297 23.3385 60.1697 20.8385C58.0397 19.0385 55.6597 18.3185 54.0997 19.0185C53.9997 19.0585 53.8897 19.0385 53.8197 18.9585C51.4197 16.4185 47.0797 16.1685 43.0197 18.3385C38.6197 20.6785 34.1397 26.2585 35.7997 34.3085C36.3497 33.9985 36.9997 33.8485 37.6697 33.8785C37.9297 32.3485 40.1397 32.0585 42.9097 31.6985C47.6097 31.0885 53.4597 30.3185 53.9097 23.5385C53.9097 23.4085 54.0197 23.3085 54.1397 23.3085C54.2597 23.3085 54.3797 23.3885 54.3997 23.5085C55.9198 31.7085 61.1497 33.8185 62.1097 33.8985C62.2397 33.8885 62.3598 33.8785 62.4897 33.8785L62.4997 33.8685Z" fill="#666F74"/>
<path d="M79.2602 84.2889H20.7402C20.7402 84.2889 20.9202 67.5389 24.6902 61.9189C26.9902 58.4989 32.8902 56.4089 39.3702 54.4389C39.3702 54.4389 40.9402 61.2589 50.0002 61.2589C59.0602 61.2589 60.6302 54.4389 60.6302 54.4389V54.4189C67.1402 56.3989 73.0102 58.4889 75.3102 61.9189C79.0902 67.5389 79.2602 84.2889 79.2602 84.2889Z" fill="#C3DDEA"/>
</svg>
