<svg width="100" height="100" viewBox="0 0 100 100" fill="none" xmlns="http://www.w3.org/2000/svg">
<circle cx="50" cy="50" r="50" fill="white"/>
<path d="M77.6461 67.9344C72.8584 64.7117 65.5724 65.9634 58.3504 61.9725C56.6844 61.051 56.6405 59.0295 56.6405 59.0295V47.3955H43.359V59.0295C43.359 59.0295 43.3152 61.0527 41.6491 61.9725C34.4272 65.9634 27.1412 64.7117 22.3535 67.9344C18.494 70.5321 19.0247 86.6522 19.0247 86.6522H80.9715C80.9715 86.6522 81.5022 70.5321 77.6427 67.9344H77.6461Z" fill="#FFEDE0"/>
<path d="M77.6466 67.933C73.2396 64.9663 66.7151 65.7884 60.0727 62.8252C57.3402 64.2588 53.8295 65.1196 50.002 65.1196C46.1745 65.1196 42.6638 64.2571 39.9313 62.8252C33.2889 65.7884 26.7644 64.968 22.3574 67.933C18.4979 70.5306 19.0286 86.6508 19.0286 86.6508H80.9754C80.9754 86.6508 81.5061 70.5306 77.6466 67.933Z" fill="#C3DDEA"/>
<path d="M50.0021 57.7298C51.835 57.7298 52.9266 57.7467 54.5152 56.8522C55.1907 56.4714 56.6429 53.0449 56.6429 53.0449C55.9269 53.6716 55.1907 54.2191 54.5152 54.5998C52.9283 55.4961 51.835 55.4775 50.0021 55.4775C48.1692 55.4775 47.0776 55.4944 45.489 54.5998C44.8135 54.2191 44.0756 53.6699 43.3613 53.0449C43.3613 53.0449 44.8135 56.4698 45.489 56.8522C47.0759 57.7484 48.1692 57.7298 50.0021 57.7298Z" fill="#F7E2D3"/>
<path d="M65.0727 34.5203C64.9025 34.5018 64.7307 34.5119 64.5572 34.5439C64.3971 34.5742 64.2371 34.6264 64.0771 34.6955C63.9052 35.9826 63.3493 39.9212 62.9248 40.3558C62.9433 39.7005 62.9484 39.0334 62.9484 38.3579C62.9484 37.4128 62.9399 36.4846 62.8928 35.5799C62.8203 34.1766 62.6485 32.8289 62.256 31.5571C60.8375 29.3064 58.939 25.0157 58.4959 25.1959C57.9029 25.4385 52.5509 26.4965 50.0863 26.4965C46.8822 26.4965 40.6187 25.8428 40.6187 25.8428C40.6187 25.8428 40.0173 27.5898 38.3883 29.7933C38.1626 30.3357 37.957 30.8933 37.7751 31.4678C37.4921 32.3623 37.3219 33.2939 37.2175 34.2558C37.204 34.3805 37.1905 34.5051 37.1804 34.6315C37.1771 34.677 37.172 34.7241 37.1686 34.7713C37.1585 34.896 37.1484 35.0206 37.14 35.1453C37.1366 35.1992 37.1333 35.2531 37.1299 35.307C37.0692 36.2976 37.0591 37.3168 37.0591 38.3562C37.0591 39.0317 37.0625 39.6988 37.0827 40.3541C36.6582 39.9195 36.1023 35.9826 35.9304 34.6938C35.8816 34.6719 35.8327 34.6517 35.7839 34.6349C35.671 34.5927 35.5598 34.5624 35.4469 34.5405C35.3796 34.527 35.3139 34.5186 35.2465 34.5136C35.1403 34.5052 35.0359 34.5051 34.9315 34.5169C33.4642 34.677 32.7819 36.7895 33.4086 39.2356C34.0352 41.6816 35.7317 43.5347 37.199 43.3747C37.2461 43.3696 37.2916 43.3629 37.3371 43.3528C37.4399 43.9997 37.5814 44.6297 37.7751 45.2429C38.4473 47.3605 39.581 48.7537 40.7821 50.354C41.9833 51.9544 43.9021 53.7637 45.4907 54.6599C47.0776 55.5562 48.1709 55.5376 50.0038 55.5376C51.8366 55.5376 52.9282 55.5545 54.5168 54.6599C56.1038 53.7637 58.0242 51.9561 59.2254 50.354C60.4265 48.7537 61.5602 47.3588 62.2324 45.2429C62.4261 44.6297 62.5676 43.998 62.6704 43.3528C62.7159 43.3612 62.7614 43.3696 62.8085 43.3747C64.2759 43.5347 65.9723 41.6816 66.5989 39.2356C67.2256 36.7895 66.5433 34.677 65.076 34.5169L65.0727 34.5203Z" fill="#FFEDE0"/>
<path d="M65.0183 20.1372C64.3832 18.7424 62.2656 16.9786 60.7427 17.3728C60.6686 15.2805 57.0399 13.2808 54.3513 14.2528C55.7562 14.3994 56.949 15.0631 57.8789 15.8431C52.3702 13.1343 42.4966 14.9654 39.3531 17.2649C34.6968 20.6729 34.0971 26.4192 35.2443 34.5171C35.3117 34.5222 35.3774 34.5306 35.4448 34.5441C35.556 34.566 35.6688 34.5963 35.7817 34.6384C35.8306 34.657 35.8794 34.6772 35.9283 34.6974C36.1001 35.9844 36.656 39.9214 37.0806 40.3577C37.062 39.7024 37.057 39.0353 37.057 38.3597C37.057 37.3203 37.0671 36.3011 37.1277 35.3106C37.1311 35.2567 37.1345 35.2028 37.1378 35.1489C37.1463 35.0242 37.1564 34.8995 37.1665 34.7749C37.1698 34.7277 37.1732 34.6822 37.1783 34.6351C37.1901 34.5087 37.2018 34.384 37.2153 34.2594C37.3198 33.2975 37.4882 32.3659 37.7729 31.4713C37.9549 30.8969 38.1621 30.3393 38.3861 29.7968C40.0152 27.5933 40.6166 25.8464 40.6166 25.8464C40.6166 25.8464 46.8783 26.5 50.0841 26.5C52.5487 26.5 57.9008 25.4421 58.4937 25.1995C58.9368 25.0192 60.8354 29.31 62.2538 31.5606C62.5385 32.4838 62.7053 33.4457 62.8047 34.4396C62.8114 34.507 62.8182 34.5727 62.8232 34.6401C62.835 34.7681 62.8451 34.8979 62.8552 35.0276C62.8603 35.095 62.8637 35.1623 62.8687 35.2297C62.8771 35.3477 62.8839 35.4656 62.8906 35.5835C62.9378 36.4881 62.9462 37.4164 62.9462 38.3614C62.9462 39.037 62.9428 39.7041 62.9226 40.3594C63.3471 39.9248 63.9031 35.9844 64.0749 34.6991C64.2349 34.6283 64.395 34.5778 64.555 34.5474C64.5601 34.4902 64.5651 34.4312 64.5685 34.3739C64.5853 34.4278 64.6022 34.4834 64.619 34.5357C65.0772 29.9131 64.9627 20.838 63.5122 19.15C64.0041 19.3808 64.5062 19.7043 65.0166 20.1389L65.0183 20.1372Z" fill="#666F74"/>
</svg>
