<svg width="100" height="100" viewBox="0 0 100 100" fill="none" xmlns="http://www.w3.org/2000/svg">
<circle cx="50" cy="50" r="50" fill="white"/>
<path d="M39.4692 58.0098C39.4692 59.9298 43.8892 61.8598 49.9992 61.8598C56.1092 61.8598 59.9292 59.9298 60.5492 58.0098V84.2298H39.4492V58.0098H39.4692Z" fill="#F9F9F9"/>
<path d="M62.3779 33.6703C63.9279 33.8703 61.9479 36.5603 61.8179 37.7703C61.5679 39.5003 61.1279 41.1803 60.5179 42.7403C59.8279 44.5303 58.9179 46.1603 57.7779 47.5103C55.8079 49.8803 53.1879 51.3803 49.9979 51.3803C46.8079 51.3803 44.2379 49.9003 42.2679 47.5803C41.1079 46.2103 40.1779 44.5503 39.4679 42.7303C38.8679 41.1703 38.4279 39.5003 38.1779 37.7803C38.0479 36.5603 36.5579 33.3003 38.1079 33.1003C47.1079 31.6403 49.9979 24.5303 49.9979 24.5303C49.9979 24.5303 51.9079 31.7803 60.9079 33.2303L62.3779 33.6703Z" fill="#FFEDE0"/>
<path d="M60.5492 54.3405V58.0105C59.9292 59.9305 56.0992 61.8605 49.9992 61.8605C43.8992 61.8605 39.4692 59.9305 39.4692 58.0105H39.4492V54.3505C40.0592 54.1605 40.6792 53.9805 41.2992 53.7905C42.1992 53.5605 42.2592 49.7805 42.2592 47.5905H42.2692C44.2392 49.9005 46.8292 51.3805 49.9992 51.3805C53.1692 51.3805 55.8092 49.8805 57.7792 47.5205C57.7792 49.7105 57.8492 53.5605 58.7492 53.7905C59.3492 53.9705 59.9592 54.1505 60.5492 54.3405Z" fill="#FFEDE0"/>
<mask id="mask0_205_6255" style="mask-type:luminance" maskUnits="userSpaceOnUse" x="39" y="47" width="22" height="15">
<path d="M60.5492 54.3405V58.0105C59.9292 59.9305 56.0992 61.8605 49.9992 61.8605C43.8992 61.8605 39.4692 59.9305 39.4692 58.0105H39.4492V54.3505C40.0592 54.1605 40.6792 53.9805 41.2992 53.7905C42.1992 53.5605 42.2592 49.7805 42.2592 47.5905H42.2692C44.2392 49.9005 46.8292 51.3805 49.9992 51.3805C53.1692 51.3805 55.8092 49.8805 57.7792 47.5205C57.7792 49.7105 57.8492 53.5605 58.7492 53.7905C59.3492 53.9705 59.9592 54.1505 60.5492 54.3405Z" fill="white"/>
</mask>
<g mask="url(#mask0_205_6255)">
<path d="M60.5297 35.9003C62.0797 36.1003 61.9497 38.5603 61.8197 39.7703C61.5697 41.5003 61.1297 43.1803 60.5197 44.7403C59.8297 46.5303 58.9197 48.1603 57.7797 49.5103C55.8097 51.8803 53.1897 53.3803 49.9997 53.3803C46.8097 53.3803 44.2397 51.9003 42.2697 49.5803C41.1097 48.2103 40.1797 46.5503 39.4697 44.7303C38.8697 43.1703 38.4297 41.5003 38.1797 39.7803C38.0497 38.5603 37.9097 36.1003 39.4597 35.9003C48.4597 34.4403 49.9997 26.5303 49.9997 26.5303C49.9997 26.5303 51.5297 34.4403 60.5297 35.8903V35.9003Z" fill="#F7E2D3"/>
</g>
<path d="M39.4483 58.0096V84.2296H20.7383C20.7383 84.2296 20.9083 67.4796 24.6783 61.8596C26.9883 58.4196 32.9283 56.3296 39.4483 54.3496V58.0096Z" fill="#C3DDEA"/>
<path d="M79.2589 84.2298H60.5488V54.3398C67.0688 56.3198 72.9888 58.4198 75.3088 61.8598C79.0788 67.4798 79.2589 84.2298 79.2589 84.2298Z" fill="#C3DDEA"/>
<path d="M62.0975 34.0803C62.8575 34.0103 63.5576 34.1603 64.1476 34.5103C65.1676 35.1003 65.8476 36.2903 65.8976 37.9203C65.9676 40.4003 64.0776 42.7403 60.5276 42.7403H60.5176C61.1276 41.1803 61.5676 39.5003 61.8176 37.7803C62.0076 36.5503 62.0975 35.3103 62.0975 34.0803Z" fill="#FFEDE0"/>
<path d="M37.8982 34.0803C37.8982 35.3103 37.9882 36.5503 38.1782 37.7703C38.4282 39.5003 38.8681 41.1703 39.4681 42.7303H39.4582C35.9082 42.7403 34.0181 40.4003 34.0981 37.9203C34.1481 36.2903 34.8281 35.1003 35.8481 34.5103C36.4381 34.1603 37.1382 34.0103 37.8982 34.0803Z" fill="#FFEDE0"/>
<path d="M39.4582 33.9004C38.9682 33.9804 38.4382 34.0404 37.8982 34.0804C37.1382 34.0104 36.4382 34.1604 35.8482 34.5104H35.8382C31.1582 25.2204 45.1182 12.9804 49.9982 17.7304C54.8782 12.9804 68.8282 25.2204 64.1582 34.5004H64.1482C63.5582 34.1604 62.8582 34.0104 62.0982 34.0804C61.5482 34.0404 61.0282 33.9804 60.5282 33.8904C51.5282 32.4404 49.9982 24.5304 49.9982 24.5304C49.9982 24.5304 48.4582 32.4404 39.4582 33.9004Z" fill="#666F74"/>
<path d="M35.8486 34.7601C35.7886 34.7601 35.7186 34.7301 35.6686 34.6901C35.6486 34.6701 35.6286 34.6401 35.6086 34.6201C32.8186 29.1001 36.5086 22.3101 41.3986 18.7201C44.7986 16.2201 48.0586 15.7301 49.9986 17.4001C51.9286 15.7401 55.1886 16.2201 58.5786 18.7101C63.4686 22.2901 67.1586 29.0901 64.3786 34.6201C64.3686 34.6401 64.3486 34.6701 64.3286 34.6801C64.2486 34.7601 64.1186 34.7901 64.0186 34.7301C63.4786 34.4101 62.8186 34.2701 62.1186 34.3301C61.4886 34.2901 60.9586 34.2201 60.4786 34.1401C53.2086 32.9701 50.7086 27.5701 49.9886 25.4401C49.2786 27.5701 46.7686 32.9701 39.4886 34.1501C39.0086 34.2301 38.4686 34.2901 37.9086 34.3301C37.1686 34.2701 36.5085 34.4001 35.9685 34.7301C35.9285 34.7501 35.8886 34.7701 35.8386 34.7701L35.8486 34.7601ZM47.2086 16.9101C45.4086 16.9101 43.3686 17.8901 41.6986 19.1201C37.0486 22.5401 33.4986 28.9301 35.9586 34.1701C36.5486 33.8801 37.2186 33.7701 37.9286 33.8301C38.4386 33.7901 38.9586 33.7301 39.4286 33.6501C48.1386 32.2401 49.7486 24.5601 49.7586 24.4801C49.7786 24.3601 49.8886 24.2801 50.0086 24.2801C50.1286 24.2801 50.2286 24.3601 50.2586 24.4801C50.2786 24.5601 51.8686 32.2401 60.5786 33.6401C61.0486 33.7201 61.5486 33.7901 62.1286 33.8301C62.7986 33.7601 63.4686 33.8801 64.0486 34.1701C66.4986 28.9201 62.9486 22.5301 58.2986 19.1101C55.7186 17.2201 52.2386 15.9101 50.1886 17.9101C50.0886 18.0101 49.9386 18.0101 49.8386 17.9101C49.1086 17.2001 48.2086 16.9101 47.2286 16.9101H47.2086Z" fill="#666F74"/>
<path d="M44.5273 38.7305C42.0073 38.7305 40.0273 37.4105 40.0273 35.7305C40.0273 34.0505 42.0073 32.7305 44.5273 32.7305C47.0473 32.7305 49.0273 34.0505 49.0273 35.7305C49.0273 37.4105 47.0473 38.7305 44.5273 38.7305ZM44.5273 33.7305C42.6273 33.7305 41.0273 34.6505 41.0273 35.7305C41.0273 36.8105 42.6273 37.7305 44.5273 37.7305C46.4273 37.7305 48.0273 36.8105 48.0273 35.7305C48.0273 34.6505 46.4273 33.7305 44.5273 33.7305Z" fill="#666F74"/>
<path d="M55.4668 38.7305C52.9468 38.7305 50.9668 37.4105 50.9668 35.7305C50.9668 34.0505 52.9468 32.7305 55.4668 32.7305C57.9868 32.7305 59.9668 34.0505 59.9668 35.7305C59.9668 37.4105 57.9868 38.7305 55.4668 38.7305ZM55.4668 33.7305C53.5668 33.7305 51.9668 34.6505 51.9668 35.7305C51.9668 36.8105 53.5668 37.7305 55.4668 37.7305C57.3668 37.7305 58.9668 36.8105 58.9668 35.7305C58.9668 34.6505 57.3668 33.7305 55.4668 33.7305Z" fill="#666F74"/>
<path d="M51.4672 36.1409C51.3472 36.1409 51.2272 36.1009 51.1272 36.0109C51.1172 36.0109 50.7172 35.6709 49.9972 35.6709C49.2772 35.6709 48.8772 36.0009 48.8572 36.0209C48.6472 36.2009 48.3372 36.1809 48.1572 35.9809C47.9772 35.7809 47.9872 35.4709 48.1872 35.2809C48.2572 35.2209 48.8872 34.6709 49.9972 34.6709C51.1072 34.6709 51.7372 35.2109 51.8072 35.2709C52.0072 35.4609 52.0272 35.7709 51.8372 35.9809C51.7372 36.0909 51.6072 36.1409 51.4672 36.1409Z" fill="#666F74"/>
</svg>
