<svg width="100" height="100" viewBox="0 0 100 100" fill="none" xmlns="http://www.w3.org/2000/svg">
<circle cx="50" cy="50" r="50" fill="white"/>
<path d="M65.0406 39.9551C65.3706 43.0251 66.1906 46.4051 67.9806 48.9651C64.5606 51.5051 60.0306 52.5051 57.2506 52.7051C56.9206 51.5251 56.8906 49.4451 56.8906 47.9051C58.4306 46.4051 59.6406 44.4251 60.5006 42.1851H60.5106C62.7906 42.1951 64.2706 41.3151 65.0406 39.9551Z" fill="#647177"/>
<path d="M57.2506 52.955C57.1406 52.955 57.0406 52.885 57.0106 52.775C56.6806 51.615 56.6406 49.665 56.6406 47.905C56.6406 47.835 56.6706 47.775 56.7206 47.725C58.1906 46.295 59.3906 44.395 60.2706 42.095C60.3106 41.985 60.4206 41.935 60.5406 41.935C62.5706 41.935 64.0506 41.205 64.8306 39.835C64.8806 39.735 64.9906 39.695 65.1006 39.715C65.2106 39.735 65.2906 39.825 65.3006 39.935C65.7006 43.655 66.6706 46.655 68.2006 48.825C68.2806 48.935 68.2506 49.085 68.1406 49.165C64.8306 51.615 60.3606 52.735 57.2806 52.955C57.2806 52.955 57.2706 52.955 57.2606 52.955H57.2506ZM57.1406 48.005C57.1406 49.515 57.1806 51.325 57.4406 52.435C60.3806 52.185 64.5106 51.145 67.6406 48.905C66.2406 46.815 65.3106 44.045 64.8706 40.655C64.1606 41.545 62.9006 42.405 60.6706 42.435C59.7806 44.695 58.5906 46.565 57.1406 48.015V48.005Z" fill="#647177"/>
<path d="M43.1685 48.0051C43.1685 49.5451 43.1385 51.5751 42.7985 52.7251C40.0285 52.5251 35.3985 51.5051 31.9785 48.9651C33.7685 46.4051 34.5985 43.0251 34.9185 39.9551C35.6885 41.3151 37.1685 42.1951 39.4485 42.1851H39.4585C40.3385 44.4751 41.5885 46.4951 43.1685 48.0051Z" fill="#647177"/>
<path d="M42.7993 52.9753C42.7993 52.9753 42.7893 52.9753 42.7793 52.9753C39.6593 52.7553 35.1493 51.6353 31.8293 49.1653C31.7193 49.0853 31.6993 48.9353 31.7693 48.8253C33.6793 46.0853 34.3993 42.4753 34.6693 39.9353C34.6793 39.8253 34.7593 39.7353 34.8693 39.7153C34.9793 39.6953 35.0893 39.7453 35.1393 39.8353C35.9193 41.2153 37.3993 41.9353 39.4193 41.9353C39.4293 41.9353 39.4493 41.9353 39.4593 41.9353C39.5593 41.9353 39.6693 41.9953 39.6993 42.0953C40.5893 44.4153 41.8493 46.3953 43.3493 47.8253C43.3993 47.8753 43.4293 47.9353 43.4293 48.0053C43.4293 49.7353 43.3793 51.6653 43.0493 52.7953C43.0193 52.9053 42.9193 52.9753 42.8094 52.9753H42.7993ZM32.3193 48.9053C35.4593 51.1553 39.6293 52.2053 42.6093 52.4553C42.8693 51.3853 42.9193 49.6753 42.9193 48.1053C41.4393 46.6653 40.1893 44.7053 39.2893 42.4253C37.0593 42.3953 35.7993 41.5353 35.0893 40.6453C34.7693 43.1253 34.0293 46.3353 32.3193 48.8953V48.9053Z" fill="#647177"/>
<path d="M62.08 33.5254C63.32 33.5254 64.39 34.0754 65.02 35.0554C65.49 35.7454 65.73 36.6554 65.66 37.7454C65.61 38.5554 65.4 39.3154 65.04 39.9554C64.27 41.3154 62.79 42.1954 60.51 42.1854H60.5C61.54 39.5254 62.08 36.4954 62.08 33.5254Z" fill="#FCE3D1"/>
<path d="M37.881 33.5254C37.881 36.4954 38.421 39.5254 39.461 42.1854H39.451C37.171 42.1954 35.691 41.3154 34.921 39.9554C34.561 39.3154 34.351 38.5554 34.301 37.7454C34.231 36.6554 34.471 35.7454 34.941 35.0554C35.571 34.0754 36.651 33.5254 37.881 33.5254Z" fill="#FCE3D1"/>
<path d="M62.0809 33.5253C62.0809 36.4953 61.5409 39.5253 60.5009 42.1853C59.6409 44.4253 58.4309 46.4053 56.8909 47.9053C55.0409 49.7253 52.7209 50.8353 49.9809 50.8353C47.2409 50.8353 45.0009 49.7653 43.1709 48.0053C41.5909 46.4953 40.3409 44.4753 39.4609 42.1853C38.4209 39.5253 37.8809 36.4953 37.8809 33.5253C45.8009 32.1253 46.9009 22.9453 46.9009 22.9453C46.9009 22.9453 48.7409 33.5253 62.0809 33.5253Z" fill="#FCE3D1"/>
<path d="M57.8509 53.6053C58.7809 53.8753 59.7109 54.1653 60.6309 54.4753C59.6309 56.4653 56.1809 59.5953 50.0109 59.5953C43.8409 59.5953 40.3809 56.4753 39.3809 54.4953C40.3209 54.1753 41.2609 53.8753 42.2009 53.6053C42.4709 53.5353 42.6609 53.2053 42.8009 52.7253C43.1409 51.5753 43.1709 49.5453 43.1709 48.0053C45.0009 49.7653 47.2809 50.8353 49.9809 50.8353C52.6809 50.8353 55.0409 49.7253 56.8909 47.9053C56.8909 49.4453 56.9209 51.5253 57.2509 52.7053C57.3909 53.2053 57.5809 53.5353 57.8509 53.6053Z" fill="#FCE3D1"/>
<mask id="mask0_205_6191" style="mask-type:luminance" maskUnits="userSpaceOnUse" x="39" y="47" width="22" height="13">
<path d="M57.8509 53.6053C58.7809 53.8753 59.7109 54.1653 60.6309 54.4753C59.6309 56.4653 56.1809 59.5953 50.0109 59.5953C43.8409 59.5953 40.3809 56.4753 39.3809 54.4953C40.3209 54.1753 41.2609 53.8753 42.2009 53.6053C42.4709 53.5353 42.6609 53.2053 42.8009 52.7253C43.1409 51.5753 43.1709 49.5453 43.1709 48.0053C45.0009 49.7653 47.2809 50.8353 49.9809 50.8353C52.6809 50.8353 55.0409 49.7253 56.8909 47.9053C56.8909 49.4453 56.9209 51.5253 57.2509 52.7053C57.3909 53.2053 57.5809 53.5353 57.8509 53.6053Z" fill="white"/>
</mask>
<g mask="url(#mask0_205_6191)">
<path d="M62.0809 35.5253C62.0809 38.4953 61.5409 41.5253 60.5009 44.1853C59.6409 46.4253 58.4309 48.4053 56.8909 49.9053C55.0409 51.7253 52.7209 52.8353 49.9809 52.8353C47.2409 52.8353 45.0009 51.7653 43.1709 50.0053C41.5909 48.4953 40.3409 46.4753 39.4609 44.1853C38.4209 41.5253 37.8809 38.4953 37.8809 35.5253C45.8009 34.1253 46.9009 24.9453 46.9009 24.9453C46.9009 24.9453 48.7409 35.5253 62.0809 35.5253Z" fill="#ECD5C4"/>
</g>
<path d="M65.0206 35.0551C64.3906 34.0751 63.3206 33.5251 62.0806 33.5251C48.7406 33.5251 46.9006 22.9451 46.9006 22.9451C46.9006 22.9451 45.8006 32.1251 37.8806 33.5251C36.6506 33.5251 35.5706 34.0751 34.9406 35.0551C34.1806 26.8851 38.8606 16.2051 49.9906 16.2051C61.1206 16.2051 65.8006 26.8851 65.0406 35.0451L65.0206 35.0551Z" fill="#647177"/>
<path d="M34.94 35.3051C34.87 35.3051 34.81 35.2751 34.76 35.2351C34.72 35.1951 34.68 35.1251 34.68 35.0751C34.18 29.7551 35.93 24.1951 39.24 20.5651C41.99 17.5551 45.7 15.9551 49.98 15.9551C54.26 15.9551 57.97 17.5451 60.71 20.5651C64.02 24.1951 65.77 29.7551 65.28 35.0751C65.28 35.1351 65.25 35.1851 65.21 35.2251C65.16 35.2751 65.08 35.3051 65 35.3051C64.92 35.3051 64.85 35.2651 64.81 35.1951C64.23 34.2951 63.24 33.7851 62.08 33.7851C51.22 33.7851 47.84 26.7651 46.94 24.0551C46.36 26.5551 44.29 32.6551 37.92 33.7851C36.72 33.7851 35.72 34.3051 35.15 35.2051C35.11 35.2651 35.04 35.3151 34.97 35.3151C34.97 35.3151 34.95 35.3151 34.94 35.3151V35.3051ZM49.98 16.4551C45.85 16.4551 42.26 17.9951 39.61 20.8951C36.52 24.2851 34.83 29.4151 35.13 34.4051C35.81 33.6851 36.78 33.2751 37.88 33.2751C45.48 31.9251 46.64 23.0051 46.65 22.9151C46.66 22.7951 46.77 22.6951 46.89 22.6951C47.01 22.6951 47.12 22.7851 47.14 22.9051C47.21 23.3251 49.11 33.2751 62.07 33.2751C63.16 33.2751 64.13 33.6851 64.82 34.4051C65.12 29.4151 63.43 24.2951 60.33 20.9051C57.68 17.9951 54.1 16.4651 49.97 16.4651L49.98 16.4551Z" fill="#647177"/>
<path d="M78.2602 84.0446H21.7402C21.7402 84.0446 22.3902 67.7846 25.5502 62.6746C27.6002 59.3746 33.3502 56.5146 39.3802 54.4946C40.3802 56.4746 43.8502 59.5946 50.0102 59.5946C56.1702 59.5946 59.6302 56.4646 60.6302 54.4746C66.6702 56.5046 72.3902 59.3746 74.4502 62.6746C77.6202 67.7846 78.2602 84.0446 78.2602 84.0446Z" fill="#BCDAD8"/>
</svg>
